# xmcd
#
# Track frame offsets: 
#        150
#        16848
#        54014
#        66171
#
# Disc length: 1349 seconds
#
# Revision: 0
# Processed by: cddbd v1.5.2PL0 Copyright (c) Steve Scherf et al.
# Submitted via: ExactAudioCopyFreeDBPlugin 1.0
#
DISCID=25054304
DTITLE=Jane Weaver - The Architect
DYEAR=1900
DGENRE=
TTITLE0=The architect
TTITLE1=The Architect (Andy Votel's brutaliszt 250kg readymix)
TTITLE2=Code
TTITLE3=Element
EXTD=
EXTT0=
EXTT1=
EXTT2=
EXTT3=
PLAYORDER=
